<?xml version="1.0" standalone="no"?>
<!DOCTYPE svg PUBLIC "-//W3C//DTD SVG 20010904//EN"
 "http://www.w3.org/TR/2001/REC-SVG-20010904/DTD/svg10.dtd">
<svg version="1.0" xmlns="http://www.w3.org/2000/svg"
 width="700.000000pt" height="700.000000pt" viewBox="0 0 700.000000 700.000000"
 preserveAspectRatio="xMidYMid meet">
<metadata>
Created by potrace 1.14, written by Peter Selinger 2001-2017
</metadata>
<g transform="translate(0.000000,700.000000) scale(0.100000,-0.100000)"
fill="#000000" stroke="none">
<path d="M1120 6067 c-72 -20 -105 -46 -262 -204 -166 -168 -198 -218 -198
-314 0 -129 -65 -57 974 -1097 l941 -942 -932 -933 c-659 -659 -938 -945 -954
-977 -18 -35 -23 -62 -23 -120 0 -112 21 -144 216 -336 143 -141 170 -163 217
-179 73 -24 162 -17 228 19 67 37 2361 2333 2389 2391 29 62 27 214 -5 275
-16 31 -372 395 -1184 1208 -929 929 -1172 1168 -1212 1187 -62 30 -136 38
-195 22z"/>
<path d="M2875 1652 c-67 -22 -145 -100 -168 -166 -14 -40 -17 -88 -17 -239 0
-112 5 -205 11 -227 19 -64 78 -131 144 -165 l59 -30 1670 0 1671 0 57 28 c32
16 73 46 92 69 58 67 66 107 66 323 0 232 -8 264 -85 342 -91 90 65 83 -1804
82 -1501 0 -1650 -2 -1696 -17z"/>
</g>
</svg>
